<svg xmlns="http://www.w3.org/2000/svg" xmlns:xlink="http://www.w3.org/1999/xlink" version="1.1" x="0px" y="0px" viewBox="0 0 100 100" enable-background="new 0 0 100 100" xml:space="preserve"><path fill="none" stroke="#000000" stroke-width="2" stroke-linecap="round" stroke-linejoin="round" stroke-miterlimit="10" d="  M50.205,30.382h21.419c0.905,0,1.638,0.734,1.638,1.638c0,0.905-0.734,1.638-1.638,1.638H50.205V30.382z"></path><path fill="none" stroke="#000000" stroke-width="2" stroke-linecap="round" stroke-linejoin="round" stroke-miterlimit="10" d="  M48.455,27.33c0.966,0,1.75,0.806,1.75,1.8v5.78c0,0.994-0.783,1.8-1.75,1.8l0,0c-0.966,0-1.75-0.806-1.75-1.8v-5.78  C46.705,28.135,47.489,27.33,48.455,27.33L48.455,27.33z"></path><path fill="none" stroke="#000000" stroke-width="2" stroke-linecap="round" stroke-linejoin="round" stroke-miterlimit="10" d="  M44.911,25.042c0.991,0,1.794,0.826,1.794,1.845v10.266c0,1.019-0.803,1.845-1.794,1.845l0,0c-0.991,0-1.794-0.826-1.794-1.845  V26.888C43.118,25.868,43.922,25.042,44.911,25.042L44.911,25.042z"></path><path fill="none" stroke="#000000" stroke-width="2" stroke-linecap="round" stroke-linejoin="round" stroke-miterlimit="10" d="  M41.357,23.618c0.973,0,1.761,0.705,1.761,1.575v13.654c0,0.87-0.788,1.575-1.761,1.575l0,0c-0.973,0-1.761-0.705-1.761-1.575  V25.194C39.596,24.323,40.384,23.618,41.357,23.618L41.357,23.618z"></path><path fill="none" stroke="#000000" stroke-width="2" stroke-linecap="round" stroke-linejoin="round" stroke-miterlimit="10" d="  M34.281,27.33c-0.966,0-1.75,0.806-1.75,1.8v5.78c0,0.994,0.783,1.8,1.75,1.8l0,0c0.966,0,1.75-0.806,1.75-1.8v-5.78  C36.031,28.135,35.247,27.33,34.281,27.33L34.281,27.33z"></path><path fill="none" stroke="#000000" stroke-width="2" stroke-linecap="round" stroke-linejoin="round" stroke-miterlimit="10" d="  M37.825,25.042c-0.991,0-1.794,0.826-1.794,1.845v10.266c0,1.019,0.803,1.845,1.794,1.845l0,0c0.991,0,1.794-0.826,1.794-1.845  V26.888C39.618,25.868,38.814,25.042,37.825,25.042L37.825,25.042z"></path><path fill="none" stroke="#000000" stroke-width="2" stroke-linecap="round" stroke-linejoin="round" stroke-miterlimit="10" d="  M54.237,48.257c0,1.381-1.119,2.5-2.5,2.5h-20.75c-1.381,0-2.5-1.119-2.5-2.5l0,0c0-1.381,1.119-2.5,2.5-2.5h20.75  C53.118,45.757,54.237,46.875,54.237,48.257L54.237,48.257z"></path><path fill="none" stroke="#000000" stroke-width="2" stroke-linecap="round" stroke-linejoin="round" stroke-miterlimit="10" d="  M31.737,50.757v4.125c-2.761,0-5,2.239-5,5v3.5v11c0,1.105,0.895,2,2,2h25.25c1.105,0,2-0.895,2-2v-11v-3.5c0-2.761-2.239-5-5-5  v-4.125H31.737z"></path><line fill="none" stroke="#000000" stroke-width="2" stroke-linecap="round" stroke-linejoin="round" stroke-miterlimit="10" x1="26.737" y1="59.882" x2="55.987" y2="59.882"></line><line fill="none" stroke="#000000" stroke-width="2" stroke-linecap="round" stroke-linejoin="round" stroke-miterlimit="10" x1="39.596" y1="59.882" x2="39.596" y2="58.257"></line><line fill="none" stroke="#000000" stroke-width="2" stroke-linecap="round" stroke-linejoin="round" stroke-miterlimit="10" x1="39.596" y1="54.882" x2="39.596" y2="50.757"></line><line fill="none" stroke="#000000" stroke-width="2" stroke-linecap="round" stroke-linejoin="round" stroke-miterlimit="10" x1="39.596" y1="45.757" x2="39.596" y2="38.847"></line><polygon fill="none" stroke="#000000" stroke-linecap="round" stroke-linejoin="round" stroke-miterlimit="10" points="  45.272,64.197 47.873,64.197 49.158,66.405 47.873,68.372 45.272,68.372 44.039,66.285 "></polygon><polygon fill="none" stroke="#000000" stroke-linecap="round" stroke-linejoin="round" stroke-miterlimit="10" points="  49.193,66.56 51.656,66.56 52.87,68.649 51.656,70.512 49.193,70.512 48.026,68.536 "></polygon><polygon fill="none" stroke="#000000" stroke-linecap="round" stroke-linejoin="round" stroke-miterlimit="10" points="  45.343,68.429 47.805,68.429 49.021,70.52 47.805,72.382 45.343,72.382 44.176,70.406 "></polygon></svg>